<svg width="1027" height="924" viewBox="0 0 1027 924" fill="none" xmlns="http://www.w3.org/2000/svg">
<path fill-rule="evenodd" clip-rule="evenodd" d="M635.961 160.761C579.778 134.725 515.926 146.438 453.639 178.921C391.347 211.408 330.538 264.707 280.361 322.007C206.11 406.797 148.378 475.631 165.546 587.307C172.283 631.132 187.455 665.216 209.95 691.593C232.444 717.969 262.236 736.609 298.165 749.589C370.001 775.54 466.454 778.892 578.414 776.161C634.419 774.796 686.002 769.331 729.443 758.824C772.877 748.318 808.216 732.759 831.688 711.171C855.184 689.562 866.77 661.926 862.697 627.368C858.628 592.844 838.936 551.452 799.995 502.263C722.239 404.044 709.289 331.771 701.787 277.549C701.399 274.747 701.026 271.992 700.659 269.284C697.477 245.791 694.763 225.763 687.156 208.589C678.651 189.388 664.045 173.775 635.961 160.761ZM281.113 322.665C331.24 265.424 391.955 212.219 454.102 179.808C516.254 147.394 579.757 135.817 635.541 161.668C663.44 174.597 677.849 190.048 686.241 208.994C693.787 226.029 696.481 245.906 699.67 269.432L699.67 269.434L699.677 269.487C700.041 272.172 700.412 274.905 700.797 277.686C708.314 332.017 721.308 404.48 799.211 502.884C838.101 552.007 857.666 593.225 861.704 627.485C865.738 661.71 854.282 689.033 831.011 710.435C807.717 731.859 772.566 747.364 729.208 757.852C685.859 768.337 634.351 773.797 578.39 775.162C466.419 777.893 370.142 774.528 298.505 748.648C262.698 735.713 233.068 717.159 210.711 690.944C188.356 664.731 173.248 630.829 166.534 587.155C149.445 475.992 206.832 407.49 281.113 322.665Z"/>
<path fill-rule="evenodd" clip-rule="evenodd" d="M693.21 21.5464C611.01 -16.5462 517.565 0.578568 426.363 48.142C335.155 95.7083 246.108 173.755 172.624 257.671C63.859 381.874 -20.6227 482.619 4.50564 646.076C14.3685 710.233 36.5762 760.114 69.4935 798.712C102.409 837.308 146.008 864.591 198.607 883.592C303.78 921.587 445.018 926.5 609.012 922.5C691.034 920.5 766.572 912.497 830.18 897.111C893.78 881.727 945.499 858.95 979.838 827.368C1014.2 795.765 1031.14 755.358 1025.18 704.817C1019.23 654.309 990.418 593.722 933.392 521.69C819.465 377.782 800.487 271.877 789.495 192.432C788.927 188.328 788.381 184.294 787.843 180.328C783.18 145.91 779.211 116.609 768.082 91.4851C755.65 63.4199 734.302 40.5891 693.21 21.5464ZM173.376 258.329C246.81 174.472 335.763 96.5193 426.825 49.0287C517.893 1.53531 610.989 -15.4537 692.79 22.4537C733.697 41.411 754.849 64.0803 767.168 91.8901C778.235 116.875 782.185 146.026 786.854 180.478L786.858 180.508C787.394 184.458 787.938 188.477 788.505 192.569C799.512 272.123 818.534 378.218 932.608 522.31C989.582 594.278 1018.27 654.691 1024.19 704.934C1030.11 755.142 1013.3 795.236 979.161 826.632C945.001 858.05 893.469 880.773 829.945 896.139C766.428 911.503 690.966 919.501 608.988 921.5C444.982 925.5 303.922 920.575 198.947 882.652C146.471 863.694 103.033 836.497 70.2543 798.063C37.4773 759.63 15.3337 709.93 5.49403 645.924C-19.5555 482.98 64.5809 382.567 173.376 258.329Z"/>
<path fill-rule="evenodd" clip-rule="evenodd" d="M426.825 49.0287C335.763 96.5193 246.81 174.472 173.376 258.329C64.5809 382.567 -19.5555 482.98 5.49403 645.924C15.3337 709.93 37.4773 759.63 70.2543 798.063C103.033 836.497 146.471 863.694 198.947 882.652C303.922 920.575 444.982 925.5 608.988 921.5C690.966 919.501 766.428 911.503 829.945 896.139C893.469 880.773 945.001 858.05 979.161 826.632C1013.3 795.236 1030.11 755.142 1024.19 704.934C1018.27 654.691 989.582 594.278 932.608 522.31C818.534 378.218 799.512 272.123 788.505 192.569C787.938 188.477 787.394 184.458 786.858 180.508L786.854 180.478C782.185 146.026 778.235 116.875 767.168 91.8901C754.849 64.0803 733.697 41.411 692.79 22.4537C610.989 -15.4537 517.893 1.53531 426.825 49.0287ZM635.961 160.761C579.778 134.725 515.926 146.438 453.639 178.921C391.347 211.408 330.538 264.707 280.361 322.007C206.11 406.797 148.378 475.631 165.546 587.307C172.283 631.132 187.455 665.216 209.95 691.593C232.444 717.969 262.236 736.609 298.165 749.589C370.001 775.54 466.454 778.892 578.414 776.161C634.419 774.796 686.002 769.331 729.443 758.824C772.877 748.318 808.216 732.759 831.688 711.171C855.184 689.562 866.77 661.926 862.697 627.368C858.628 592.844 838.936 551.452 799.995 502.263C722.239 404.044 709.289 331.771 701.787 277.549C701.399 274.747 701.026 271.992 700.659 269.284C697.477 245.791 694.763 225.763 687.156 208.589C678.651 189.388 664.045 173.775 635.961 160.761Z"/>
</svg>
