<svg width="1022" height="776" viewBox="0 0 1022 776" fill="none" xmlns="http://www.w3.org/2000/svg">
<path d="M113.291 3.43494C110.252 3.89747 107.156 4.41852 104 4.99994C95.7908 6.51215 88.1094 8.98569 80.9421 12.3416L33.3988 58.0535C26.7037 69.4556 21.0838 82.3615 16.4928 96.5042L113.291 3.43494Z"/>
<path d="M4.44237 151.445C5.65894 142.303 7.16762 133.437 8.97603 124.891L137.973 0.863133C146.038 0.440709 153.681 0.481633 160.979 0.939091L4.44237 151.445Z"/>
<path d="M0.760651 199.176C0.971878 191.267 1.36005 183.487 1.92897 175.857L181.296 3.39985C187.669 4.56058 193.8 6.05695 199.754 7.84864L0.760651 199.176Z"/>
<path d="M1.26616 241.958C0.916718 234.696 0.69783 227.502 0.612061 220.391L215.783 13.5089C221.1 15.6599 226.316 18.0366 231.487 20.6064L1.26616 241.958Z"/>
<path d="M4.34523 281.189C3.60838 274.357 2.97717 267.561 2.45358 260.812L244.889 27.7155C249.651 30.3873 254.414 33.2006 259.223 36.1292L4.34523 281.189Z"/>
<path d="M9.50954 319.415C8.45863 312.924 7.49733 306.446 6.62727 299.99L272.479 44.3791C275.862 46.5186 279.286 48.7012 282.763 50.9185C283.959 51.6811 285.162 52.4478 286.371 53.2182L9.50954 319.415Z"/>
<path d="M16.353 355.987C15.0354 349.781 13.7966 343.57 12.638 337.363L299.518 61.5345C304.085 64.3932 308.769 67.2847 313.598 70.193L16.353 355.987Z"/>
<path d="M24.7638 391.477C23.2045 385.525 21.7163 379.554 20.3004 373.572L327.402 78.3005C332.135 81.005 337.013 83.711 342.058 86.4057L24.7638 391.477Z"/>
<path d="M34.5093 425.462C32.7248 419.745 31.0057 413.996 29.3532 408.223L356.386 93.7882C361.369 96.2603 366.511 98.7124 371.831 101.134L34.5093 425.462Z"/>
<path d="M45.7967 458.8C43.7889 453.314 41.8424 447.784 39.9583 442.218L387.581 107.986C392.862 110.179 398.311 112.336 403.942 114.451L45.7967 458.8Z"/>
<path d="M58.1611 490.18C55.9338 484.92 53.7648 479.604 51.6552 474.24L419.919 120.162C425.513 122.062 431.276 123.917 437.221 125.722L58.1611 490.18Z"/>
<path d="M71.4967 519.549C69.0479 514.516 66.6555 509.416 64.3205 504.253L453.224 130.33C459.127 131.94 465.198 133.5 471.449 135.004L71.4967 519.549Z"/>
<path d="M86.5257 548.29C83.8356 543.505 81.2008 538.637 78.6223 533.693L489.169 138.961C495.74 140.284 502.249 141.42 508.697 142.382L86.5257 548.29Z"/>
<path d="M103.05 575.555C100.096 571.04 97.1964 566.427 94.3529 561.721L527.998 144.781C535.229 145.5 542.381 146.015 549.456 146.346L103.05 575.555Z"/>
<path d="M121.499 601.383C118.204 597.151 114.991 592.841 111.861 588.454L571.198 146.811C579.235 146.784 587.169 146.542 595.003 146.119L121.499 601.383Z"/>
<path d="M141.713 625.303C138.111 621.371 134.585 617.362 131.137 613.275L618.924 144.279C627.856 143.396 636.653 142.316 645.317 141.099L141.713 625.303Z"/>
<path d="M164.153 647.918C160.249 644.283 156.415 640.57 152.654 636.779L672.679 136.786C682.359 135.114 691.867 133.34 701.207 131.553L164.153 647.918Z"/>
<path d="M187.874 668.379C183.681 665.027 179.552 661.597 175.492 658.089L728.634 126.254C738.32 124.397 747.817 122.625 757.133 121.049L187.874 668.379Z"/>
<path d="M212.646 686.752C208.174 683.675 203.762 680.517 199.413 677.28L781.768 117.358C790.448 116.261 798.964 115.437 807.321 114.985L212.646 686.752Z"/>
<path d="M239.675 703.956C234.918 701.158 230.216 698.279 225.574 695.318L829.413 114.74C836.557 115.001 843.58 115.623 850.486 116.674L239.675 703.956Z"/>
<path d="M268.377 719.511C263.333 716.997 258.339 714.399 253.401 711.715L868.344 120.461C874.084 122.048 879.74 123.992 885.316 126.338L268.377 719.511Z"/>
<path d="M300.115 733.946C294.764 731.735 289.46 729.435 284.205 727.047L900.91 134.099C905.534 136.777 910.1 139.776 914.611 143.122L300.115 733.946Z"/>
<path d="M332.568 746.099C326.91 744.191 321.294 742.191 315.723 740.099L926.484 152.865C930.321 156.328 934.117 160.071 937.872 164.112L332.568 746.099Z"/>
<path d="M367.606 756.602C361.618 755.023 355.665 753.346 349.752 751.571L948.228 176.15C949.49 177.729 950.747 179.346 952 181C954.02 183.668 955.997 186.34 957.93 189.017L367.606 756.602Z"/>
<path d="M403.969 764.907C397.632 763.677 391.324 762.342 385.05 760.901L966.707 201.651C969.76 206.224 972.685 210.81 975.484 215.408L403.969 764.907Z"/>
<path d="M441.581 770.935C434.869 770.082 428.178 769.114 421.515 768.032L982.942 228.232C985.664 233.139 988.242 238.059 990.675 242.993L441.581 770.935Z"/>
<path d="M482.573 774.713C475.424 774.301 468.288 773.761 461.171 773.095L997.406 257.517C999.715 262.841 1001.86 268.18 1003.83 273.534L482.573 774.713Z"/>
<path d="M526.474 775.656C518.81 775.768 511.147 775.735 503.491 775.558L1009.17 289.36C1010.96 295.213 1012.55 301.083 1013.94 306.969L526.474 775.656Z"/>
<path d="M572.892 773.207C564.603 773.962 556.296 774.547 547.981 774.962L1017.34 323.682C1018.46 330.221 1019.34 336.779 1019.97 343.356L572.892 773.207Z"/>
<path d="M625.38 766.096C616.23 767.75 607.032 769.191 597.799 770.419L1021.12 363.407C1021.26 370.952 1021.09 378.52 1020.59 386.109L625.38 766.096Z"/>
<path d="M686.332 751.683C675.833 754.776 665.223 757.571 654.527 760.068L1017.85 410.742C1016.4 419.958 1014.48 429.204 1012.09 438.478L686.332 751.683Z"/>
<path d="M759.956 724.164C746.793 730.217 733.338 735.739 719.642 740.728L1002.65 468.624C997.984 481.316 992.432 494.057 985.984 506.842L759.956 724.164Z"/>
<path d="M959.197 552.593C946.716 571.319 932.325 590.127 916 609C884.529 645.384 847.029 675.843 805.522 700.348L959.197 552.593Z"/>
</svg>
